HIERARCHY
ROOT Hips
{
	OFFSET 0.000000 0.000000 0.000000
	CHANNELS 6 Xposition Yposition Zposition Zrotation Yrotation Xrotation 
	JOINT LHipJoint
	{
		OFFSET 0.000000 0.000000 0.000000
		CHANNELS 3 Zrotation Yrotation Xrotation
		JOINT LeftUpLeg
		{
			OFFSET 1.363060 -1.794630 0.839290
			CHANNELS 3 Zrotation Yrotation Xrotation
			JOINT LeftLeg
			{
				OFFSET 2.448110 -6.726130 0.000000
				CHANNELS 3 Zrotation Yrotation Xrotation
				JOINT LeftFoot
				{
					OFFSET 2.562200 -7.039590 0.000000
					CHANNELS 3 Zrotation Yrotation Xrotation
					JOINT LeftToeBase
					{
						OFFSET 0.157640 -0.433110 2.322550
						CHANNELS 3 Zrotation Yrotation Xrotation
						End Site
						{
							OFFSET 0.000000 0.000000 0.000000
						}
					}
				}
			}
		}
	}
	JOINT RHipJoint
	{
		OFFSET 0.000000 0.000000 0.000000
		CHANNELS 3 Zrotation Yrotation Xrotation
		JOINT RightUpLeg
		{
			OFFSET -1.305520 -1.794630 0.839290
			CHANNELS 3 Zrotation Yrotation Xrotation
			JOINT RightLeg
			{
				OFFSET -2.542530 -6.985550 0.000000
				CHANNELS 3 Zrotation Yrotation Xrotation
				JOINT RightFoot
				{
					OFFSET -2.568260 -7.056230 0.000000
					CHANNELS 3 Zrotation Yrotation Xrotation
					JOINT RightToeBase
					{
						OFFSET -0.164730 -0.452590 2.363150
						CHANNELS 3 Zrotation Yrotation Xrotation
						End Site
						{
							OFFSET 0.000000 0.000000 0.000000
						}
					}
				}
			}
		}
	}
}
MOTION
Frames: 33
Frame Time: 0.008333
7.136410 16.195480 1.172914 48.751081 -85.474455 -26.887167 -12.413165 3.011207 1.019053 -5.357272 3.483493 -28.652523 2.408895 3.618244 81.006326 3.176591 20.148667 5.435108 4.110300 0.000000 -37.854500 9.428351 -2.034124 2.537283 10.419263 0.942594 -27.119653 1.769796 -1.736656 41.601737 -3.882099 -10.089507 -30.904165 4.587300 0.000000 -36.151000
6.864610 16.294897 1.143736 49.568206 -85.239856 -27.469809 -12.237626 2.896649 1.148093 -6.099238 2.934086 -30.199719 2.304272 3.592154 80.200278 3.079846 19.522426 4.118620 3.602600 -0.000000 -37.364000 9.545379 -2.064203 2.513216 10.021914 0.675075 -25.180066 1.752616 -1.492788 39.089342 -3.660335 -9.771510 -28.895728 4.045500 -0.000000 -38.737500
6.588688 16.403763 1.117951 49.914979 -85.041609 -27.566729 -12.049581 2.782834 1.296027 -6.798127 2.346864 -31.697236 2.170711 3.549550 79.080510 2.981301 18.868420 2.826430 3.122601 -0.000000 -36.804000 9.665923 -2.120877 2.482513 9.659114 0.334428 -23.285643 1.723667 -1.262661 36.472169 -3.372521 -9.322148 -26.365002 3.375499 -0.000000 -42.197099
6.308771 16.521242 1.095559 49.865601 -84.879664 -27.266891 -11.852248 2.672426 1.458976 -7.443173 1.735895 -33.115455 2.009364 3.490995 77.637140 2.883828 18.200169 1.603173 2.686000 -0.000000 -36.208500 9.790591 -2.207543 2.437396 9.329563 -0.106017 -21.442463 1.683427 -1.054663 33.771511 -3.019302 -8.744490 -23.261012 2.598000 0.000000 -46.501200
6.025219 16.646232 1.076285 49.528572 -84.751810 -26.693387 -11.646774 2.568795 1.633185 -8.034562 1.114811 -34.426158 1.822383 3.416054 75.855648 2.790815 17.535809 0.513629 2.311900 0.000001 -35.769400 9.922502 -2.324388 2.370727 9.022732 -0.668558 -19.663273 1.632514 -0.878459 31.026856 -2.608485 -8.045778 -19.562147 1.752700 -0.000000 -51.475901
5.738429 16.777299 1.059521 49.061330 -84.653227 -26.013242 -11.433002 2.476628 1.813970 -8.584594 0.499011 -35.604440 1.611986 3.324660 73.726947 2.703328 16.882428 -0.417267 2.004200 0.000000 -35.405900 10.066294 -2.468223 2.277763 8.718233 -1.364063 -17.967495 1.571616 -0.743719 28.300220 -2.157305 -7.235757 -15.295313 0.900000 0.000000 -56.760800
5.448774 16.912585 1.044533 48.650827 -84.577123 -25.416606 -11.209494 2.400329 1.998862 -9.114499 -0.103619 -36.628910 1.381294 3.215244 71.238654 2.622736 16.251337 -1.144475 1.771500 0.000000 -35.307699 10.227421 -2.632169 2.155967 8.388618 -2.194501 -16.384768 1.501247 -0.658575 25.677943 -1.691095 -6.319211 -10.537548 0.116101 -0.000000 -61.928501
5.156999 17.050029 1.030519 48.470839 -84.515654 -25.079412 -10.975021 2.343103 2.185584 -9.648041 -0.687856 -37.485717 1.133238 3.086935 68.388492 2.548360 15.643781 -1.661269 1.610300 0.000000 -35.392900 10.409163 -2.805838 2.006033 8.007867 -3.145492 -14.949442 1.421257 -0.627071 23.263999 -1.242617 -5.299941 -5.424944 -0.514700 -0.000000 -66.508600
4.863718 17.187313 1.016812 48.645283 -84.461665 -25.120674 -10.729549 2.306038 2.373776 -10.202574 -1.254449 -38.169515 0.870974 2.938692 65.179511 2.479003 15.059579 -1.961499 1.517000 -0.000001 -35.661199 10.610806 -2.976253 1.832563 7.559428 -4.184197 -13.695151 1.330586 -0.646342 21.164522 -0.847338 -4.187249 -0.146373 -0.915900 -0.000000 -70.125000
4.569421 17.321994 1.003045 49.210349 -84.410891 -25.566093 -10.475163 2.288476 2.564383 -10.783986 -1.807743 -38.683730 0.597216 2.770325 61.626113 2.412800 14.495856 -2.055600 1.484300 0.000001 -36.025400 10.826043 -3.129403 1.643986 7.042581 -5.257753 -12.642598 1.227732 -0.705359 19.468240 -0.536980 -3.013941 5.062955 -1.042000 0.000001 -72.531300
4.275040 17.451782 0.989264 50.077245 -84.372535 -26.316871 -10.217856 2.285823 2.756603 -11.371919 -2.344319 -39.043675 0.314572 2.582455 57.748610 2.347028 13.946524 -1.942502 1.507700 -0.000000 -36.701000 11.040965 -3.253845 1.452965 6.484942 -6.277709 -11.797852 1.110374 -0.789368 18.240011 -0.330606 -1.850810 9.978159 -0.905799 -0.000000 -73.777401
3.980845 17.574424 0.975508 51.171689 -84.344519 -27.290671 -9.961285 2.296511 2.952948 -11.955185 -2.873754 -39.262378 0.022347 2.376292 53.587015 2.278931 13.404034 -1.680605 1.569201 0.000000 -37.224900 11.244489 -3.340644 1.267189 5.907217 -7.188934 -11.140798 0.979491 -0.881402 17.505209 -0.228592 -0.794395 14.351013 -0.580300 0.000001 -73.920500
3.687644 17.688026 0.962764 52.159925 -84.363695 -28.139744 -9.718692 2.310534 3.152108 -12.467244 -3.370961 -39.388622 -0.277111 2.152614 49.191305 2.204380 12.853790 -1.268200 1.663600 -0.000000 -38.022300 11.413582 -3.392811 1.104200 5.389817 -7.870251 -10.652192 0.835406 -0.970680 17.272727 -0.219496 -0.004895 18.028251 -0.208800 -0.000000 -73.096400
3.395648 17.790892 0.951078 53.011863 -84.423357 -28.839531 -9.490976 2.326350 3.356250 -12.904298 -3.847232 -39.427432 -0.586213 1.909500 44.611836 2.121659 12.294754 -0.769196 1.772900 0.000000 -38.698900 11.546936 -3.411321 0.959257 4.937863 -8.327654 -10.295280 0.680542 -1.053007 17.527863 -0.278385 0.426531 20.899808 0.076700 -0.000000 -71.836200
3.105160 17.881662 0.941040 53.519600 -84.540662 -29.181204 -9.286225 2.336256 3.564414 -13.231191 -4.282215 -39.412992 -0.903435 1.644284 39.909819 2.027606 11.716548 -0.203189 1.887201 -0.000000 -39.420500 11.636740 -3.404765 0.835080 4.592738 -8.531837 -10.043029 0.516908 -1.129089 18.250908 -0.385237 0.408432 22.939980 0.157599 0.000000 -70.429100
2.816429 17.959335 0.932969 53.544384 -84.720915 -29.036367 -9.110248 2.333840 3.772956 -13.435692 -4.651011 -39.368137 -1.226806 1.354267 35.151344 1.918591 11.103809 0.400972 1.993000 -0.000000 -40.204700 11.682049 -3.380817 0.728203 4.371979 -8.496138 -9.865449 0.347014 -1.202053 19.409293 -0.524914 -0.083595 24.184023 -0.023100 -0.000000 -69.221700
2.529345 18.023023 0.927038 53.009173 -84.962438 -28.336639 -8.967987 2.314703 3.977480 -13.526940 -4.921950 -39.316186 -1.552122 1.038310 30.403099 1.790748 10.440519 1.041618 2.081600 0.000000 -41.230600 11.686753 -3.345626 0.633589 4.274204 -8.264024 -9.752290 0.175247 -1.276430 20.993689 -0.685012 -0.987045 24.672471 -0.444400 0.000000 -68.132500
2.243959 18.072318 0.923386 51.792447 -85.265162 -26.982272 -8.865649 2.274703 4.162453 -13.527022 -5.034737 -39.272170 -1.876303 0.700985 25.751655 1.636361 9.679034 1.693336 2.132000 0.000000 -42.394700 11.653660 -3.306208 0.547571 4.298326 -7.871498 -9.661511 0.004489 -1.354214 22.933635 -0.862070 -2.231502 24.540390 -1.053700 0.000000 -67.507601
1.959984 18.106803 0.921931 49.912533 -85.618773 -25.008762 -8.805469 2.214817 4.314016 -13.491584 -4.936177 -39.252599 -2.196078 0.351646 21.282331 1.448962 8.779842 2.375185 2.132199 -0.000000 -43.875200 11.592047 -3.266822 0.465735 4.413793 -7.385695 -9.586715 -0.160363 -1.438967 25.207976 -1.047666 -3.666948 23.870364 -1.744100 -0.000000 -67.018100
1.677152 18.126452 0.922660 47.353686 -86.017926 -22.422427 -8.789521 2.137347 4.410298 -13.486472 -4.558448 -39.273606 -2.511702 0.006795 17.105528 1.220266 7.676495 3.083869 2.058600 -0.000000 -45.622600 11.508493 -3.233332 0.387433 4.593495 -6.851259 -9.495392 -0.317249 -1.531681 27.744680 -1.237461 -5.176900 22.808916 -2.427700 0.000001 -66.695200
1.395167 18.131421 0.925556 44.119268 -86.456783 -19.246055 -8.817101 2.047000 4.430471 -13.585852 -3.846320 -39.360515 -2.825943 -0.312509 13.348157 0.944952 6.301218 3.809338 1.885800 0.000000 -47.558600 11.408719 -3.211025 0.313770 4.805804 -6.306359 -9.360984 -0.465414 -1.632641 30.471690 -1.425557 -6.657014 21.496221 -3.034800 -0.000001 -66.467601
1.113647 18.122025 0.930264 40.366554 -86.921260 -15.647277 -8.879690 1.950745 4.366801 -13.851601 -2.813408 -39.524812 -3.139151 -0.588517 10.106247 0.629866 4.647026 4.552043 1.605301 0.000000 -49.664100 11.302099 -3.201505 0.243100 4.999495 -5.792500 -9.169267 -0.605250 -1.742178 33.324952 -1.603995 -8.014004 20.050045 -3.515800 -0.000000 -66.204300
0.832215 18.098668 0.936485 36.237631 -87.400023 -11.764562 -8.967097 1.854533 4.225679 -14.298054 -1.532802 -39.778348 -3.445446 -0.807854 7.457203 0.293410 2.764803 5.286639 1.222900 -0.000000 -51.785800 11.194598 -3.205071 0.174185 5.134497 -5.331467 -8.915045 -0.738179 -1.859659 36.238941 -1.767073 -9.200252 18.579566 -3.858600 0.000000 -65.892700
0.550356 18.061730 0.943510 32.076969 -87.876488 -7.918938 -9.063025 1.762822 4.040495 -14.863616 -0.197067 -40.084658 -3.723998 -0.971377 5.377367 -0.027247 0.853010 6.010541 0.788700 -0.000001 -53.845500 11.097610 -3.217248 0.099732 5.163493 -4.945343 -8.612945 -0.865132 -1.985567 39.166558 -1.909772 -10.185676 17.155104 -4.066300 0.000000 -65.482100
0.268027 18.011384 0.951096 27.791851 -88.349790 -3.994934 -9.166601 1.677682 3.836074 -15.464457 1.072387 -40.459875 -3.958262 -1.072257 3.920337 -0.308049 -0.957416 6.642631 0.338800 0.000000 -55.509900 11.005824 -3.238163 0.020125 5.092945 -4.619878 -8.281421 -0.987217 -2.118774 42.068261 -2.032602 -10.995773 15.829332 -4.171500 -0.000000 -65.013600
-0.015057 17.947822 0.958349 23.619790 -88.807226 -0.194148 -9.269947 1.599926 3.655370 -15.975602 2.070662 -40.848433 -4.123741 -1.119516 3.016783 -0.518139 -2.413389 7.157404 -0.047500 -0.000000 -56.706200 10.926135 -3.262973 -0.071254 4.907841 -4.356863 -7.952623 -1.104951 -2.260184 44.928171 -2.136665 -11.651163 14.611632 -4.197800 -0.000000 -64.466500
-0.298776 17.871130 0.964421 19.749031 -89.239829 3.323996 -9.367634 1.529837 3.529201 -16.295534 2.660107 -41.215863 -4.205755 -1.119891 2.628970 -0.641965 -3.333732 7.505918 -0.305600 0.000000 -57.326100 10.864529 -3.288158 -0.177035 4.609192 -4.150182 -7.658793 -1.219317 -2.410358 47.741543 -2.225857 -12.190972 13.493102 -4.170900 -0.000000 -63.861300
-0.582668 17.781574 0.968356 16.515897 -89.641958 6.235980 -9.447953 1.470161 3.467234 -16.379610 2.791940 -41.549247 -4.203093 -1.076024 2.763714 -0.677878 -3.648644 7.618484 -0.400299 0.000000 -57.286100 10.832745 -3.309271 -0.298380 4.199587 -3.994837 -7.413651 -1.332603 -2.569231 50.505807 -2.305657 -12.661638 12.458949 -4.114400 0.000000 -63.316899
-0.866905 17.679167 0.969369 -165.111849 -89.991942 -172.374604 -9.475779 1.435187 3.508461 -16.183516 2.342283 -41.877820 -4.112707 -1.000094 3.379979 -0.615874 -3.242150 7.472030 -0.291400 0.000000 -56.633200 10.865841 -3.313427 -0.427558 3.669160 -3.901106 -7.305317 -1.449227 -2.732360 53.264070 -2.376917 -13.074159 11.444975 -4.025401 0.000000 -62.599800
-1.150363 17.564642 0.967010 -164.333391 -89.652553 -173.337387 -9.421622 1.439084 3.606165 -15.818922 1.507372 -42.297811 -3.966079 -0.874760 4.660214 -0.481420 -2.376151 6.927991 -0.053000 0.000000 -55.227100 10.986457 -3.293248 -0.557304 3.037080 -3.858086 -7.299871 -1.574807 -2.894733 56.003797 -2.445686 -13.476703 10.444418 -3.922800 0.000000 -61.954800
-1.432559 17.438793 0.960656 -158.660929 -89.365393 -179.131756 -9.209013 1.496819 3.751088 -15.338041 0.311730 -42.845251 -3.781006 -0.709601 6.616612 -0.279989 -1.136054 5.975556 0.271900 0.000000 -53.202000 11.271988 -3.241650 -0.675815 2.295795 -3.884916 -7.428080 -1.710719 -3.057710 58.737895 -2.512595 -13.870199 9.424214 -3.799900 0.000000 -61.366400
-1.712675 17.302588 0.951179 -147.237227 -89.254628 169.360322 -8.854359 1.551176 3.871618 -14.905445 -1.004755 -43.640284 -3.590920 -0.493989 9.480255 -0.056513 0.108424 4.530201 0.558600 -0.000000 -50.455900 11.712462 -3.235889 -0.761574 1.493037 -4.007740 -7.695241 -1.834564 -3.259197 61.448450 -2.579466 -14.272684 8.361815 -3.658000 0.000000 -60.775000
-1.990113 17.157663 0.939339 -130.310300 -89.452515 152.362898 -8.509115 1.488587 3.925052 -14.650259 -2.328878 -44.649813 -3.381301 -0.234373 13.248190 0.168379 1.196401 2.631217 0.737000 -0.000001 -47.105400 12.165096 -3.373412 -0.823654 0.592398 -4.261997 -8.086963 -1.924046 -3.549469 64.108323 -2.643253 -14.674778 7.250357 -3.493600 -0.000000 -60.173700
